<?xml version="1.0" encoding="iso-8859-1"?>
<!-- Uploaded to: SVG Repo, www.svgrepo.com, Generator: SVG Repo Mixer Tools -->
<svg version="1.1" id="Layer_1" xmlns="http://www.w3.org/2000/svg" xmlns:xlink="http://www.w3.org/1999/xlink" 
	 viewBox="0 0 512 512" xml:space="preserve">
<path style="fill:#B3404A;" d="M87.595,512c-7.855,0-14.223-6.368-14.223-14.223V14.223C73.372,6.368,79.739,0,87.595,0h336.81
	c7.855,0,14.223,6.368,14.223,14.223v93.895c0,7.855-6.368,14.223-14.223,14.223s-14.223-6.368-14.223-14.223V28.446H101.818
	v469.331C101.818,505.632,95.45,512,87.595,512z"/>
<rect x="144.491" y="108.124" style="fill:#F4B2B0;" width="223.032" height="292.924"/>
<path style="fill:#B3404A;" d="M367.513,415.259H144.487c-7.855,0-14.223-6.368-14.223-14.223V108.118
	c0-7.855,6.368-14.223,14.223-14.223h223.026c7.855,0,14.223,6.368,14.223,14.223v292.918
	C381.736,408.891,375.368,415.259,367.513,415.259z M158.71,386.813h194.58V122.341H158.71V386.813z"/>
<rect x="213.331" y="453.715" style="fill:#F4B2B0;" width="85.338" height="44.07"/>
<g>
	<path style="fill:#B3404A;" d="M424.405,169.948c-7.855,0-14.223,6.368-14.223,14.223v299.382h-97.29v-29.847
		c0-7.855-6.368-14.223-14.223-14.223h-85.338c-7.855,0-14.223,6.368-14.223,14.223v29.847h-33.424
		c-7.855,0-14.223,6.368-14.223,14.223S157.828,512,165.684,512h258.722c7.855,0,14.223-6.368,14.223-14.223V184.171
		C438.628,176.316,432.261,169.948,424.405,169.948z M227.554,483.554V467.93h56.892v15.624H227.554z"/>
	<path style="fill:#B3404A;" d="M294.638,75.837H217.36c-7.855,0-14.223-6.368-14.223-14.223s6.368-14.223,14.223-14.223h77.278
		c7.855,0,14.223,6.368,14.223,14.223S302.494,75.837,294.638,75.837z"/>
</g>
</svg>